# xmcd CD database file
#
# Track frame offsets:
#	150
#	15457
#	32126
#	48422
#	69048
#	90823
#	109488
#	123949
#	143456
#	162166
#	179974
#	195535
#	217383
#	241011
#
# Disc length: 3548 seconds
#
# Revision: 0
# Processed by: cddbd v1.5.1PL0 Copyright (c) Steve Scherf et al.
# Submitted via: CDex 1.51
#
DISCID=b90dda0e
DTITLE=Jamie Cullum - TwentySomething
DYEAR=2004
DGENRE=Jazz
TTITLE0=These Are The Days
TTITLE1=Twentysomething
TTITLE2=Wind Cries Mary
TTITLE3=All at Sea
TTITLE4=Lover, You Should Have Comer Over
TTITLE5=Singin' In The Rain
TTITLE6=Blame It on My Youth
TTITLE7=High and Dry
TTITLE8=It's About Time
TTITLE9=But For Now
TTITLE10=I Could Have Danced All Night
TTITLE11=Next Year Baby
TTITLE12=What A Diff'rence a Day Made
TTITLE13=Frontin'
EXTD=YEAR: 2004
EXTT0=
EXTT1=
EXTT2=
EXTT3=
EXTT4=
EXTT5=
EXTT6=
EXTT7=
EXTT8=
EXTT9=
EXTT10=
EXTT11=
EXTT12=
EXTT13=
PLAYORDER=
